<svg width="1200" height="630" viewBox="0 0 1200 630" fill="none" xmlns="http://www.w3.org/2000/svg" role="img" aria-labelledby="title desc">
  <title id="title">Mietfolio</title>
  <desc id="desc">Manage rentals before work piles up.</desc>
  <rect width="1200" height="630" fill="#ffffff"/>
  <rect x="0" y="0" width="1200" height="630" fill="url(#bg)"/>
  <rect x="76" y="72" width="1048" height="486" rx="28" fill="#ffffff" stroke="#dfe9e6" stroke-width="2"/>
  <rect x="128" y="126" width="84" height="84" rx="18" fill="#faf8ff" stroke="#dfe9e6" stroke-width="1.5"/>
  <g transform="translate(136.4 134.4) scale(0.672)">
    <rect x="10" y="10" width="24" height="24" rx="2" fill="#003441"/>
    <rect x="66" y="10" width="24" height="24" rx="2" fill="#003441"/>
    <rect x="10" y="38" width="24" height="24" rx="2" fill="#003441"/>
    <rect x="38" y="38" width="24" height="24" rx="2" fill="#003441"/>
    <rect x="66" y="38" width="24" height="24" rx="2" fill="#003441"/>
    <rect x="10" y="66" width="24" height="24" rx="2" fill="#003441"/>
    <rect x="66" y="66" width="24" height="24" rx="2" fill="#003441"/>
  </g>
  <text x="240" y="178" fill="#0b1422" font-family="Manrope, Inter, Arial, sans-serif" font-size="54" font-weight="800">Mietfolio</text>
  <text x="128" y="315" fill="#0b1422" font-family="Manrope, Inter, Arial, sans-serif" font-size="70" font-weight="800" letter-spacing="-1">
    Manage rentals,
  </text>
  <text x="128" y="398" fill="#0b1422" font-family="Manrope, Inter, Arial, sans-serif" font-size="70" font-weight="800" letter-spacing="-1">
    before work piles up
  </text>
  <text x="132" y="462" fill="#2d3d49" font-family="Inter, Arial, sans-serif" font-size="31" font-weight="500">
    Service charges, documents, tenant portal,
  </text>
  <text x="132" y="508" fill="#2d3d49" font-family="Inter, Arial, sans-serif" font-size="31" font-weight="500">
    smoke alarms and deadlines in one system.
  </text>
  <rect x="820" y="124" width="246" height="310" rx="22" fill="#f4faf7" stroke="#cfe1dc"/>
  <rect x="852" y="160" width="182" height="20" rx="10" fill="#006b5b"/>
  <rect x="852" y="206" width="102" height="88" rx="16" fill="#ffffff" stroke="#dfe9e6"/>
  <rect x="972" y="206" width="62" height="88" rx="16" fill="#ffffff" stroke="#dfe9e6"/>
  <rect x="852" y="318" width="182" height="18" rx="9" fill="#89cdbc"/>
  <rect x="852" y="356" width="142" height="18" rx="9" fill="#b7ddd2"/>
  <rect x="852" y="394" width="96" height="18" rx="9" fill="#d7e8e3"/>
  <defs>
    <linearGradient id="bg" x1="1200" y1="0" x2="0" y2="630" gradientUnits="userSpaceOnUse">
      <stop stop-color="#eef9f5"/>
      <stop offset="0.55" stop-color="#ffffff"/>
      <stop offset="1" stop-color="#ffffff"/>
    </linearGradient>
  </defs>
</svg>
